<svg width="163" height="38" viewBox="0 0 163 38" fill="none" xmlns="http://www.w3.org/2000/svg">
<path d="M50.2268 29.9175H51.3814C52.0412 29.9175 52.4536 29.9175 52.6185 30C52.9484 30.0825 53.1959 30.2474 53.4433 30.4948C53.6907 30.7423 53.7732 31.0722 53.7732 31.4021C53.7732 31.732 53.6907 31.9794 53.5258 32.2268C53.3608 32.4742 53.1959 32.6392 52.866 32.7216C52.6186 32.8041 52.2062 32.8866 51.7938 32.8866L53.8557 35.5258H53.1959L51.134 32.8866H50.8041V35.5258H50.2268V29.9175ZM50.8041 30.4948V32.3917H51.7938C52.2062 32.3917 52.4536 32.3917 52.6185 32.3093C52.7835 32.2268 52.9484 32.1443 53.0309 31.9794C53.1134 31.8144 53.1959 31.6495 53.1959 31.4845C53.1959 31.3196 53.1134 31.1546 53.0309 30.9897C52.9484 30.8247 52.7835 30.7423 52.6185 30.6598C52.4536 30.5773 52.2062 30.5773 51.7938 30.5773H50.8041V30.4948Z" fill="white"/>
<path d="M58.5567 29.9175H61.7732V30.4948H59.134V32.2268H61.7732V32.8041H59.134V35.0309H61.7732V35.6082H58.5567V29.9175Z" fill="white"/>
<path d="M66.3917 29.9175H67.5464C68.2062 29.9175 68.6186 29.9175 68.866 30C69.1959 30.0825 69.4433 30.2474 69.6907 30.4948C69.8557 30.7423 70.0206 31.0722 70.0206 31.4021C70.0206 31.8144 69.9381 32.0619 69.6907 32.3093C69.5258 32.5567 69.1959 32.7216 68.866 32.8041C68.6186 32.8866 68.1237 32.8866 67.4639 32.8866H67.0515V35.5258H66.4742V29.9175H66.3917ZM66.8866 30.4948V32.3917H67.8763C68.2887 32.3917 68.5361 32.3917 68.701 32.3093C68.866 32.2268 69.0309 32.1443 69.1134 31.9794C69.1959 31.8144 69.2784 31.6495 69.2784 31.4845C69.2784 31.3196 69.1959 31.1546 69.1134 30.9897C69.0309 30.8247 68.866 30.7423 68.701 30.6598C68.5361 30.5773 68.2887 30.5773 67.8763 30.5773H66.8866V30.4948Z" fill="white"/>
<path d="M74.6392 29.9175H75.7938C76.4536 29.9175 76.866 29.9175 77.0309 30C77.3608 30.0825 77.6082 30.2474 77.8557 30.4948C78.1031 30.7423 78.1856 31.0722 78.1856 31.4021C78.1856 31.732 78.1031 31.9794 77.9381 32.2268C77.7732 32.4742 77.6082 32.6392 77.2783 32.7216C77.0309 32.8041 76.6185 32.8866 76.2062 32.8866L78.268 35.5258H77.6082L75.5464 32.8866H75.2165V35.5258H74.6392V29.9175ZM75.2165 30.4948V32.3917H76.2062C76.6185 32.3917 76.866 32.3917 77.0309 32.3093C77.1959 32.2268 77.3608 32.1443 77.4433 31.9794C77.5258 31.8144 77.6082 31.6495 77.6082 31.4845C77.6082 31.3196 77.5258 31.1546 77.4433 30.9897C77.3608 30.8247 77.1959 30.7423 77.0309 30.6598C76.866 30.5773 76.6185 30.5773 76.2062 30.5773H75.2165V30.4948Z" fill="white"/>
<path d="M82.9691 29.9175H86.1856V30.4948H83.5464V32.2268H86.1856V32.8041H83.5464V35.0309H86.1856V35.6082H82.9691V29.9175Z" fill="white"/>
<path d="M90.2268 34.5361L90.7216 34.2887C91.0515 34.9484 91.4639 35.1959 91.8763 35.1959C92.0412 35.1959 92.2062 35.1134 92.3711 35.0309C92.5361 34.9484 92.701 34.866 92.7835 34.701C92.866 34.5361 92.9484 34.3711 92.9484 34.2062C92.9484 34.0412 92.866 33.7938 92.7835 33.6289C92.6185 33.3814 92.2886 33.0515 91.7938 32.7216C91.299 32.3917 91.0515 32.1443 90.8866 31.9794C90.7216 31.7319 90.5567 31.4021 90.5567 31.1546C90.5567 30.9072 90.6392 30.6598 90.7216 30.4948C90.8041 30.3299 90.9691 30.1649 91.2165 30C91.4639 29.9175 91.6289 29.835 91.8763 29.835C92.1237 29.835 92.3711 29.9175 92.6185 30C92.866 30.1649 93.1134 30.4124 93.3608 30.7423L92.866 31.0722C92.6185 30.8247 92.4536 30.5773 92.2887 30.4948C92.1237 30.4124 91.9587 30.3299 91.7938 30.3299C91.5464 30.3299 91.3814 30.4124 91.2165 30.5773C91.0515 30.7423 90.9691 30.9072 90.9691 31.0722C90.9691 31.1546 90.9691 31.3196 91.0515 31.4021C91.134 31.4845 91.2165 31.6495 91.299 31.8144C91.3814 31.8969 91.6289 32.0618 92.0412 32.3917C92.5361 32.7216 92.866 33.0515 93.0309 33.3814C93.1959 33.6289 93.2783 33.9588 93.2783 34.2062C93.2783 34.6185 93.1134 34.9484 92.7835 35.2783C92.4536 35.6082 92.1237 35.6907 91.6289 35.6907C91.299 35.6907 90.9691 35.6082 90.7216 35.4433C90.7216 35.2783 90.4742 34.9484 90.2268 34.5361Z" fill="white"/>
<path d="M98.3093 29.9175H101.526V30.4948H98.8866V32.2268H101.526V32.8041H98.8866V35.0309H101.526V35.6082H98.3093V29.9175Z" fill="white"/>
<path d="M106.144 35.6082V30H106.227L109.938 34.2886V30H110.515V35.6082H110.351L106.639 31.3196V35.6082H106.144Z" fill="white"/>
<path d="M114.969 30.4948V29.9175H118.021V30.4948H116.784V35.6082H116.206V30.4948H114.969Z" fill="white"/>
<path d="M124.124 29.9175L126.763 35.5258H126.186L125.278 33.7113H122.887L121.979 35.5258H121.32L123.959 29.9175H124.124ZM124.041 31.1546L123.052 33.2165H124.948L124.041 31.1546Z" fill="white"/>
<path d="M136.495 30.9897L136.082 31.3196C135.835 30.9897 135.505 30.7423 135.175 30.5773C134.845 30.4124 134.433 30.3299 134.021 30.3299C133.608 30.3299 133.196 30.4124 132.783 30.6598C132.371 30.9072 132.124 31.1546 131.876 31.567C131.629 31.8969 131.546 32.3093 131.546 32.8041C131.546 33.4639 131.794 34.0412 132.289 34.5361C132.783 35.0309 133.361 35.1959 134.103 35.1959C134.928 35.1959 135.588 34.866 136.082 34.2887L136.495 34.6185C136.247 34.9484 135.835 35.2783 135.423 35.4433C135.01 35.6082 134.515 35.7732 134.021 35.7732C133.031 35.7732 132.289 35.4433 131.711 34.7835C131.216 34.2062 130.969 33.5464 130.969 32.8041C130.969 31.9794 131.299 31.3196 131.876 30.7423C132.454 30.1649 133.196 29.9175 134.021 29.9175C134.515 29.9175 135.01 30 135.423 30.2474C135.835 30.3299 136.165 30.5773 136.495 30.9897ZM133.608 35.6082H133.938L133.856 36.1031C133.938 36.1031 133.938 36.1031 134.021 36.1031C134.186 36.1031 134.268 36.1031 134.35 36.1856C134.433 36.268 134.515 36.3505 134.515 36.5155C134.515 36.6804 134.433 36.8454 134.268 36.9278C134.103 37.0103 133.938 37.0928 133.608 37.0928C133.361 37.0928 133.196 37.0928 132.948 37.0103L133.031 36.7629C133.196 36.8454 133.361 36.8454 133.526 36.8454C133.691 36.8454 133.856 36.8454 133.938 36.7629C134.021 36.6804 134.021 36.6804 134.021 36.5979C134.021 36.5155 134.021 36.5155 133.938 36.5155C133.856 36.5155 133.856 36.433 133.773 36.433C133.691 36.433 133.608 36.433 133.526 36.433L133.608 35.6082Z" fill="white"/>
<path d="M143.918 29.835C144.742 29.835 145.485 30.0825 146.062 30.6598C146.639 31.2371 146.887 31.8969 146.887 32.7216C146.887 33.5464 146.639 34.2062 146.062 34.7835C145.485 35.3608 144.825 35.6082 144 35.6082C143.175 35.6082 142.433 35.3608 141.856 34.7835C141.278 34.2062 141.031 33.5464 141.031 32.7216C141.031 32.1443 141.196 31.6495 141.443 31.2371C141.691 30.7423 142.103 30.4124 142.515 30.1649C142.845 29.9175 143.34 29.835 143.918 29.835ZM143.918 30.3299C143.505 30.3299 143.093 30.4124 142.763 30.6598C142.351 30.9072 142.103 31.1546 141.856 31.567C141.608 31.8969 141.526 32.3093 141.526 32.8041C141.526 33.4639 141.773 34.0412 142.186 34.5361C142.68 35.0309 143.175 35.1959 143.835 35.1959C144.247 35.1959 144.66 35.1134 145.072 34.866C145.485 34.6185 145.732 34.3711 145.979 33.9588C146.227 33.6289 146.309 33.2165 146.309 32.7216C146.309 32.3093 146.227 31.8969 145.979 31.4845C145.732 31.1546 145.485 30.8247 145.072 30.5773C144.742 30.4948 144.33 30.3299 143.918 30.3299ZM145.072 28.6804L145.32 29.0928C145.155 29.2577 144.99 29.3402 144.825 29.3402C144.66 29.4227 144.577 29.4227 144.412 29.4227C144.247 29.4227 144 29.3402 143.835 29.2577C143.67 29.1752 143.588 29.0928 143.505 29.0928C143.423 29.0928 143.34 29.0928 143.34 29.0928C143.258 29.0928 143.175 29.0928 143.093 29.1752C143.01 29.1752 142.928 29.2577 142.763 29.4227L142.515 29.0103C142.763 28.7629 143.01 28.5979 143.34 28.5979C143.505 28.5979 143.67 28.6804 143.918 28.7629C144.165 28.8454 144.33 28.9278 144.412 28.9278C144.66 28.9278 144.825 28.8454 145.072 28.6804Z" fill="white"/>
<path d="M151.67 29.9175H154.887V30.4948H152.247V32.2268H154.887V32.8041H152.247V35.0309H154.887V35.6082H151.67V29.9175Z" fill="white"/>
<path d="M158.845 34.5361L159.34 34.2887C159.67 34.9484 160.082 35.1959 160.495 35.1959C160.66 35.1959 160.825 35.1134 160.99 35.0309C161.155 34.9484 161.32 34.866 161.402 34.701C161.485 34.5361 161.567 34.3711 161.567 34.2062C161.567 34.0412 161.485 33.7938 161.402 33.6289C161.237 33.3814 160.907 33.0515 160.412 32.7216C159.918 32.3917 159.67 32.1443 159.505 31.9794C159.34 31.7319 159.175 31.4021 159.175 31.1546C159.175 30.9072 159.258 30.6598 159.34 30.4948C159.423 30.3299 159.588 30.1649 159.835 30C160.082 29.9175 160.247 29.835 160.495 29.835C160.742 29.835 160.99 29.9175 161.237 30C161.485 30.1649 161.732 30.4124 161.979 30.7423L161.485 31.0722C161.237 30.8247 161.072 30.5773 160.907 30.4948C160.742 30.4124 160.577 30.3299 160.412 30.3299C160.165 30.3299 160 30.4124 159.835 30.5773C159.67 30.7423 159.588 30.9072 159.588 31.0722C159.588 31.1546 159.588 31.3196 159.67 31.4021C159.753 31.4845 159.835 31.6495 159.918 31.8144C160 31.8969 160.247 32.0618 160.66 32.3917C161.155 32.7216 161.485 33.0515 161.649 33.3814C161.814 33.6289 161.897 33.9588 161.897 34.2062C161.897 34.6185 161.732 34.9484 161.402 35.2783C161.072 35.6082 160.742 35.6907 160.247 35.6907C159.918 35.6907 159.588 35.6082 159.34 35.4433C159.34 35.2783 159.093 34.9484 158.845 34.5361Z" fill="white"/>
<path d="M143.753 17.134H150.268C149.278 19.2783 147.299 20.3505 144.247 20.3505C142.103 20.3505 140.454 19.7732 139.299 18.701C138.144 17.5464 137.567 15.8144 137.567 13.5051C137.567 11.1959 138.144 9.38143 139.299 8.30926C140.454 7.15463 142.103 6.65978 144.247 6.65978C145.732 6.65978 146.969 6.82473 147.876 7.2371C148.866 7.64947 149.526 8.39174 150.021 9.4639H162.887C162.887 6.24741 160.825 3.93813 156.783 2.45359C153.485 1.29895 149.278 0.63916 144.247 0.63916C138.639 0.63916 134.186 1.54638 130.887 3.44328C130.309 3.77318 129.732 4.10308 129.237 4.51545L130.227 1.54638H122.474L118.103 14.9072L112.742 1.54638H101.938L97.402 14.9072L92.2062 1.54638H66.4742L65.6495 7.2371H72.5773V15.402C72.5773 17.2165 72.1649 18.4536 71.3402 19.1959C70.5155 19.9381 69.2783 20.3505 67.4639 20.3505C65.7319 20.3505 64.4124 19.9381 63.6701 19.1959C62.8454 18.4536 62.433 17.134 62.433 15.402V12.1856H50.0618V14.4124C50.0618 18.9484 51.7938 22.1649 55.1753 24.0618C58.0618 25.6289 62.1856 26.4536 67.5464 26.4536C72.9072 26.4536 77.0309 25.6289 79.9175 24.0618C83.2165 22.2474 84.9484 19.1134 85.0309 14.8247L89.1546 25.5464H101.608L105.485 14.1649L110.021 25.5464H122.474L125.443 16.3093C126.103 19.5258 127.918 22 130.887 23.6495C134.186 25.4639 138.639 26.4536 144.247 26.4536C147.216 26.4536 149.773 26.0412 151.918 25.134C154.062 24.2268 155.794 22.9897 157.031 21.4227V25.4639H162.887V12.0206H144.577L143.753 17.134Z" fill="white"/>
<path d="M23.0103 6.49483H0.989685L2.30927 2.1237H21.6907L23.0103 6.49483Z" fill="white"/>
<path d="M5.44329 32.7216L0.989685 30.5773V14.9897L5.44329 17.134V32.7216Z" fill="white"/>
<path d="M14.1856 10.866H9.73195V33.8763H14.1856V10.866Z" fill="white"/>
<path d="M23.0103 30.5773L18.5567 32.7216V17.134L23.0103 14.9897V30.5773Z" fill="white"/>
</svg>
