<svg width="594" height="603" viewBox="0 0 594 603" fill="none" xmlns="http://www.w3.org/2000/svg">
<path d="M591.957 313.523C583.442 380.13 549.46 439.161 496.662 479.946C443.864 520.731 377.645 538.676 311.436 530.217C245.227 521.759 185.651 487.742 144.81 434.994C103.97 382.246 85.9917 316.096 94.4464 249.962C102.961 183.355 136.944 124.324 189.741 83.539C242.539 42.7544 308.759 24.8092 374.967 33.268C441.176 41.7267 500.753 75.7435 541.593 128.491C582.433 181.239 600.412 247.389 591.957 313.523ZM96.811 250.264C88.4166 315.926 106.043 381.071 146.471 433.285C186.899 485.5 245.59 518.924 311.326 527.323C377.061 535.721 442.275 518.127 494.539 477.754C546.803 437.382 580.252 378.762 588.646 313.1C597.041 247.439 579.414 182.294 538.987 130.079C498.559 77.8639 439.868 44.4401 374.132 36.0417C308.396 27.6434 243.183 45.2373 190.918 85.6099C138.594 126.455 105.205 184.602 96.811 250.264Z" fill="#F56400"/>
<path d="M99.4945 330.784L97.7134 333.437L13.1435 269.341C3.52438 261.871 -1.23455 250.22 0.275224 238.411C1.84539 226.129 9.3823 216.049 20.5112 211.71L118.488 170.936L119.544 173.952L21.5676 214.725C11.3846 219.186 4.50171 227.908 3.05232 239.246C1.66334 250.111 6.07016 260.756 14.8038 267.633L99.4945 330.784Z" fill="#F56400"/>
<path d="M565.132 38.3594L551.302 146.535L548.465 146.173L562.294 37.9969C563.683 27.132 559.276 16.4867 550.543 9.60973C541.809 2.73272 530.459 1.28265 520.276 5.74287L422.239 46.989L421.182 43.9736L519.219 2.72742C530.409 -2.08435 543.177 -0.453015 552.797 7.01722C561.943 14.427 566.702 26.0774 565.132 38.3594Z" fill="#F56400"/>
<path d="M496.709 573.572C495.139 585.854 487.602 595.933 476.473 600.273C465.283 605.084 452.515 603.453 442.896 595.983L358.386 531.415L360.167 528.762L444.677 593.33C453.41 600.207 464.76 601.657 474.943 597.197C485.126 592.736 492.009 584.014 493.459 572.677L506.926 467.335L510.236 467.757L496.709 573.572Z" fill="#F56400"/>
<path d="M74.5837 247.424C73.0135 259.706 61.814 268.358 49.5181 266.787C37.2222 265.216 28.5591 254.027 30.1293 241.745C31.6995 229.463 42.899 220.811 55.1949 222.382C67.4908 223.953 76.1538 235.142 74.5837 247.424ZM32.9668 242.107C31.6382 252.5 39.0033 262.563 49.8805 263.952C60.7576 265.342 70.3572 257.927 71.7462 247.062C73.1352 236.197 65.7096 226.606 54.8325 225.217C43.9554 223.827 34.2954 231.715 32.9668 242.107Z" fill="#F56400"/>
<path d="M364.956 284.522C363.386 296.804 352.186 305.455 339.89 303.884C327.594 302.313 318.931 291.124 320.502 278.842C322.072 266.56 333.271 257.909 345.567 259.48C357.863 261.051 366.526 272.24 364.956 284.522ZM323.812 279.265C322.483 289.658 329.848 299.721 340.726 301.11C351.603 302.5 361.202 295.085 362.591 284.22C363.98 273.355 356.555 263.764 345.678 262.375C334.801 260.985 325.141 268.873 323.812 279.265Z" fill="#F56400"/>
<path d="M477.078 550.419C475.508 562.701 464.309 571.353 452.013 569.782C439.717 568.211 431.054 557.022 432.624 544.74C434.194 532.458 445.394 523.806 457.69 525.377C469.985 526.948 478.648 538.137 477.078 550.419ZM435.461 545.102C434.133 555.495 441.498 565.558 452.375 566.947C462.779 568.277 472.852 560.922 474.241 550.057C475.63 539.192 468.204 529.601 457.327 528.212C446.923 526.882 436.85 534.237 435.461 545.102Z" fill="#F56400"/>
<path d="M540.791 52.0529C539.22 64.3349 528.021 72.986 515.725 71.4151C503.429 69.8442 494.766 58.6555 496.336 46.3734C497.906 34.0914 509.106 25.4401 521.402 27.011C533.758 28.1095 542.361 39.7709 540.791 52.0529ZM499.174 46.736C497.845 57.1285 505.21 67.1912 516.087 68.5809C526.492 69.9101 536.564 62.5553 537.953 51.6904C539.342 40.8255 531.917 31.2348 521.039 29.8452C510.635 28.5159 500.563 35.8711 499.174 46.736Z" fill="#F56400"/>
<path d="M294.199 274.042C293.777 277.349 290.637 279.348 287.8 278.986C284.962 278.623 282.487 275.426 282.849 272.592C283.212 269.758 286.411 267.286 289.249 267.648C292.086 268.011 294.622 270.735 294.199 274.042ZM285.687 272.954C285.506 274.372 286.743 275.97 288.162 276.151C289.581 276.332 291.181 275.097 291.362 273.679C291.543 272.262 290.305 270.664 288.887 270.482C286.995 270.241 285.868 271.537 285.687 272.954Z" fill="#F56400"/>
<path d="M379.242 338.198C378.819 341.505 375.68 343.504 372.842 343.142C370.005 342.779 367.53 339.582 367.892 336.748C368.315 333.441 371.454 331.442 374.292 331.804C377.129 332.167 379.665 334.891 379.242 338.198ZM370.257 337.05C370.076 338.467 371.313 340.066 372.732 340.247C374.151 340.428 375.751 339.192 375.932 337.775C376.113 336.358 374.875 334.76 373.457 334.578C372.098 333.925 370.498 335.16 370.257 337.05Z" fill="#F56400"/>
<path d="M392.709 232.856C392.287 236.163 389.147 238.162 386.31 237.8C383.472 237.437 380.997 234.24 381.359 231.406C381.782 228.099 384.921 226.1 387.759 226.462C390.596 226.825 393.132 229.549 392.709 232.856ZM383.724 231.708C383.543 233.125 384.78 234.724 386.199 234.905C387.618 235.086 389.218 233.85 389.399 232.433C389.58 231.016 388.342 229.418 386.924 229.236C385.505 229.055 383.965 229.819 383.724 231.708Z" fill="#F56400"/>
<path d="M247.672 269.538C246.766 276.624 240.367 281.567 233.273 280.661L129.703 267.429C122.61 266.523 117.659 260.129 118.565 253.043C119.471 245.957 125.871 241.014 132.965 241.92L236.534 255.152C243.567 256.531 248.518 262.924 247.672 269.538ZM121.403 253.406C120.738 258.602 124.451 263.397 129.653 264.062L233.223 277.294C238.425 277.958 243.224 274.251 243.889 269.054C244.553 263.858 240.84 259.063 235.638 258.398L132.542 245.227C126.867 244.502 122.067 248.21 121.403 253.406Z" fill="#F56400"/>
<path d="M566.892 310.321C565.986 317.407 559.587 322.351 552.493 321.444L448.924 308.212C441.83 307.306 436.88 300.912 437.785 293.827C438.691 286.741 445.091 281.797 452.185 282.703L555.754 295.935C562.787 297.314 567.738 303.708 566.892 310.321ZM441.096 294.249C440.432 299.446 444.144 304.241 449.346 304.906L552.916 318.137C558.118 318.802 562.917 315.094 563.582 309.898C564.246 304.702 560.533 299.907 555.331 299.242L451.762 286.01C446.56 285.346 441.76 289.053 441.096 294.249Z" fill="#F56400"/>
<path d="M341.668 391.49L328.443 494.942C327.537 502.028 321.137 506.972 314.043 506.065C306.949 505.159 301.999 498.765 302.905 491.68L316.13 388.227C317.036 381.141 323.436 376.198 330.53 377.104C337.624 378.01 342.574 384.404 341.668 391.49ZM306.215 492.102C305.551 497.299 309.264 502.094 314.466 502.759C319.668 503.423 324.468 499.716 325.132 494.519L338.358 391.067C339.022 385.87 335.309 381.075 330.107 380.411C324.905 379.746 320.105 383.454 319.441 388.65L306.215 492.102Z" fill="#F56400"/>
<path d="M382.492 72.1571L369.267 175.61C368.361 182.695 361.961 187.639 354.867 186.733C347.774 185.826 342.823 179.433 343.729 172.347L356.955 68.8945C357.861 61.8087 364.26 56.865 371.354 57.7713C378.448 58.6776 383.398 65.0714 382.492 72.1571ZM347.04 172.77C346.375 177.966 350.088 182.761 355.29 183.426C360.492 184.091 365.292 180.383 365.956 175.187L379.182 71.7342C379.846 66.538 376.133 61.7427 370.931 61.0781C365.729 60.4135 360.929 64.1212 360.265 69.3174L347.04 172.77Z" fill="#F56400"/>
<path d="M269.101 350.052C268.679 353.359 266.837 356.484 264.171 358.544L181.508 422.399C178.841 424.459 175.35 425.453 172.039 425.03C168.729 424.607 165.599 422.767 163.537 420.103C161.474 417.439 160.478 413.951 160.901 410.644C161.324 407.337 163.165 404.212 165.832 402.152L248.495 338.297C251.161 336.237 254.653 335.243 257.963 335.666C261.274 336.089 264.403 337.929 266.466 340.593C269.001 343.318 269.524 346.745 269.101 350.052ZM164.211 411.067C163.909 413.429 164.493 416.384 166.203 418.043C167.853 420.174 170.097 421.421 172.462 421.723C174.826 422.025 177.785 421.443 179.445 419.735L262.108 355.88C266.375 352.584 267.16 346.443 263.859 342.181C262.209 340.05 259.965 338.803 257.601 338.501C255.236 338.198 252.278 338.781 250.618 340.489L167.955 404.344C166.294 406.052 164.574 408.233 164.211 411.067Z" fill="#F56400"/>
<path d="M524.023 153.132C523.601 156.439 521.759 159.564 519.093 161.624L436.43 225.479C433.763 227.539 430.272 228.533 426.961 228.11C423.651 227.687 420.521 225.847 418.459 223.183C414.333 217.855 415.36 209.825 420.754 205.232L503.417 141.378C506.083 139.318 509.575 138.324 512.885 138.747C516.196 139.17 519.325 141.01 521.388 143.674C523.923 146.398 524.446 149.826 524.023 153.132ZM419.133 214.147C418.831 216.509 419.475 218.992 421.125 221.123C422.775 223.254 425.019 224.501 427.384 224.804C429.748 225.106 432.707 224.523 434.367 222.815L517.03 158.96C519.163 157.312 520.411 155.071 520.713 152.71C521.015 150.348 520.431 147.392 518.721 145.733C517.071 143.602 514.827 142.355 512.462 142.053C510.098 141.751 507.14 142.333 505.479 144.042L422.816 207.896C420.683 209.544 419.435 211.786 419.133 214.147Z" fill="#F56400"/>
<path d="M485.796 452.152C485.373 455.459 483.532 458.585 480.865 460.644C478.199 462.704 474.707 463.698 471.397 463.275C468.086 462.853 464.957 461.013 462.894 458.349L398.953 375.764C394.827 370.436 395.854 362.405 401.247 357.813C403.914 355.753 407.406 354.759 410.716 355.182C414.026 355.605 417.156 357.445 419.218 360.109L483.633 442.754C485.696 445.418 486.219 448.846 485.796 452.152ZM399.627 366.728C399.325 369.09 399.969 371.573 401.619 373.704L465.561 456.289C467.211 458.42 469.455 459.667 471.819 459.969C474.184 460.271 477.142 459.689 478.803 457.98C480.936 456.333 482.184 454.091 482.486 451.73C482.788 449.368 482.204 446.412 480.494 444.754L416.552 362.169C414.902 360.037 412.658 358.791 410.293 358.489C407.929 358.186 404.97 358.769 403.31 360.477C401.237 361.652 399.929 364.366 399.627 366.728Z" fill="#F56400"/>
<path d="M288.608 197.472C288.185 200.778 286.343 203.904 283.677 205.963C281.01 208.023 277.519 209.017 274.208 208.595C270.898 208.172 267.769 206.332 265.706 203.668L201.764 121.083C199.702 118.419 198.706 114.931 199.128 111.624C199.551 108.317 201.392 105.192 204.059 103.132C206.726 101.072 210.217 100.078 213.528 100.501C216.838 100.924 219.967 102.764 222.03 105.428L286.445 188.073C288.507 190.737 289.03 194.165 288.608 197.472ZM202.439 112.047C202.137 114.409 202.72 117.364 204.431 119.023L268.373 201.608C270.023 203.739 272.266 204.986 274.631 205.288C276.996 205.59 279.954 205.008 281.614 203.299C285.881 200.004 286.666 193.863 283.366 189.6L219.836 107.548C218.186 105.417 215.942 104.17 213.578 103.868C211.213 103.566 208.255 104.148 206.595 105.857C204.522 107.032 202.801 109.213 202.439 112.047Z" fill="#F56400"/>
<path d="M260.312 230.824C260.13 232.241 259.416 234.07 258.762 235.427C256.92 238.552 254.254 240.612 251.235 241.667C247.744 242.661 244.433 242.238 241.777 240.459L150.193 189.87C147.064 188.03 145.001 185.366 143.945 182.35C142.949 178.862 143.371 175.555 145.153 172.902C146.994 169.777 149.661 167.717 152.679 166.662C156.171 165.668 159.481 166.091 162.138 167.871L253.721 218.46C256.851 220.3 258.913 222.964 259.97 225.979C260.261 227.457 260.553 228.934 260.312 230.824ZM146.501 177.395C146.32 178.813 146.672 179.818 146.963 181.295C147.607 183.778 149.257 185.91 151.501 187.156L243.085 237.745C245.329 238.992 248.166 239.355 250.652 238.712C253.137 238.069 255.27 236.421 256.518 234.18C257.766 231.939 258.128 229.105 257.484 226.622C256.84 224.139 255.19 222.008 252.947 220.761L161.363 170.172C159.119 168.925 156.281 168.563 153.796 169.205C151.311 169.848 149.177 171.496 147.93 173.737C146.803 175.034 146.682 175.978 146.501 177.395Z" fill="#F56400"/>
<path d="M542.207 386.864C542.026 388.281 541.311 390.11 540.657 391.467C537.447 397.778 529.518 399.646 523.199 396.438L431.615 345.849C425.296 342.641 423.425 334.721 426.635 328.409C429.845 322.098 437.774 320.23 444.093 323.438L535.677 374.027C538.806 375.867 540.869 378.531 541.925 381.547C542.157 383.497 542.448 384.974 542.207 386.864ZM428.396 333.435C427.913 337.214 429.794 341.296 433.396 343.196L524.98 393.785C529.468 396.279 535.445 394.642 537.94 390.16C539.188 387.919 539.551 385.084 538.907 382.601C538.263 380.119 536.613 377.988 534.369 376.741L442.785 326.152C438.298 323.658 432.321 325.295 429.825 329.777C429.171 331.134 428.577 332.018 428.396 333.435Z" fill="#F56400"/>
<path d="M302.909 378.856C302.728 380.273 302.013 382.103 301.359 383.459L250.733 474.932C248.892 478.057 246.225 480.117 243.206 481.172C239.715 482.166 236.404 481.743 233.748 479.964C230.619 478.123 228.556 475.459 227.5 472.444C226.504 468.956 226.926 465.649 228.708 462.996L279.334 371.523C282.544 365.212 290.473 363.345 296.792 366.552C299.921 368.392 301.984 371.056 303.04 374.072C302.919 375.017 303.151 376.967 302.909 378.856ZM230.116 467.017C229.935 468.434 230.287 469.439 230.579 470.917C231.223 473.399 232.873 475.531 235.117 476.778C237.36 478.024 240.198 478.387 242.683 477.744C245.169 477.102 247.302 475.454 248.55 473.213L299.176 381.74C300.424 379.499 300.786 376.665 300.142 374.182C299.498 371.699 297.848 369.568 295.604 368.321C291.117 365.827 285.14 367.464 282.644 371.946L231.012 463.771C230.418 464.655 230.237 466.072 230.116 467.017Z" fill="#F56400"/>
<path d="M458.591 97.2428C458.41 98.6599 457.696 100.489 457.041 101.846L406.415 193.318C404.574 196.444 401.907 198.504 398.889 199.558C395.397 200.552 392.087 200.13 389.43 198.35C386.301 196.51 384.238 193.846 383.182 190.83C382.186 187.342 382.609 184.035 384.39 181.382L435.016 89.9098C438.226 83.5985 446.155 81.7309 452.474 84.9387C457.022 86.9601 459.255 92.0466 458.591 97.2428ZM385.798 185.403C385.617 186.82 385.969 187.825 386.261 189.303C386.905 191.786 388.555 193.917 390.799 195.164C393.043 196.411 395.88 196.773 398.366 196.131C400.851 195.488 402.984 193.84 404.232 191.599L454.858 100.127C457.354 95.6444 455.714 89.6735 451.226 87.1798C446.738 84.6861 440.761 86.3231 438.266 90.8053L387.167 182.217C386.573 183.102 385.919 184.458 385.798 185.403Z" fill="#F56400"/>
<path d="M250.689 313.612C250.085 318.336 246.644 322.697 241.613 324.455L141.302 353.408C137.81 354.403 134.5 353.98 131.844 352.2C128.714 350.36 126.652 347.696 125.595 344.68C123.603 337.704 127.347 330.981 134.33 328.993L234.64 300.04C238.132 299.046 241.442 299.468 244.099 301.248C247.228 303.088 249.291 305.752 250.347 308.768C251.112 310.306 250.931 311.723 250.689 313.612ZM128.151 339.726C127.97 341.143 128.322 342.148 128.614 343.626C129.258 346.109 130.908 348.24 133.152 349.487C135.395 350.733 138.233 351.096 140.718 350.453L241.029 321.5C246 320.215 249.089 314.848 247.862 309.41C247.218 306.928 245.568 304.797 243.324 303.55C241.08 302.303 238.243 301.94 235.757 302.583L135.447 331.536C131.009 332.409 128.634 335.947 128.151 339.726Z" fill="#F56400"/>
<path d="M560.556 224.534C559.952 229.258 556.511 233.619 551.48 235.377L451.169 264.33C447.678 265.324 444.367 264.901 441.711 263.121C438.582 261.281 436.519 258.617 435.462 255.602C433.47 248.626 437.214 241.902 444.197 239.914L544.508 210.961C551.491 208.973 558.222 212.713 560.214 219.689C560.506 221.167 560.737 223.117 560.556 224.534ZM438.018 250.647C437.837 252.064 438.189 253.069 438.481 254.547C439.125 257.03 440.775 259.161 443.019 260.408C445.263 261.655 448.1 262.017 450.586 261.375L550.896 232.422C555.867 231.136 558.956 225.77 557.729 220.332C556.441 215.366 551.068 212.279 545.624 213.504L445.314 242.457C440.816 243.803 438.502 246.868 438.018 250.647Z" fill="#F56400"/>
<path d="M414.384 488.158C414.202 489.575 413.488 491.405 412.834 492.761C410.992 495.887 408.326 497.947 405.307 499.001C401.815 499.995 398.505 499.572 395.849 497.793C392.719 495.953 390.657 493.289 389.6 490.273L360.595 390.067C358.603 383.091 362.346 376.368 369.33 374.379C372.821 373.385 376.132 373.808 378.788 375.588C381.917 377.428 383.98 380.092 385.036 383.107L414.042 483.314C414.333 484.791 414.565 486.741 414.384 488.158ZM363.151 385.112C362.97 386.53 363.322 387.535 363.614 389.012L392.619 489.218C393.263 491.701 394.913 493.832 397.157 495.079C399.401 496.326 402.238 496.689 404.724 496.046C407.209 495.403 409.342 493.755 410.59 491.514C411.838 489.273 412.2 486.439 411.556 483.956L382.551 383.75C381.907 381.267 380.257 379.136 378.013 377.889C375.769 376.642 372.932 376.28 370.446 376.923C366.421 378.329 363.634 381.333 363.151 385.112Z" fill="#F56400"/>
<path d="M325.556 179.147C325.375 180.564 324.661 182.393 324.007 183.75C322.165 186.875 319.499 188.935 316.48 189.99C312.988 190.984 309.678 190.561 307.022 188.781C303.892 186.941 301.83 184.277 300.773 181.262L271.768 81.0558C270.772 77.5679 271.195 74.2612 272.976 71.6081C274.817 68.4827 277.484 66.4228 280.503 65.3682C287.486 63.3798 294.217 67.1205 296.209 74.0964L324.802 173.77C325.567 175.308 325.798 177.257 325.556 179.147ZM274.384 75.6291C274.203 77.0463 274.555 78.0514 274.847 79.529L303.852 179.735C304.496 182.218 306.146 184.349 308.39 185.596C310.634 186.843 313.472 187.205 315.957 186.563C318.442 185.92 320.576 184.272 321.823 182.031C323.071 179.79 323.433 176.955 322.79 174.473L293.784 74.2666C292.496 69.301 287.123 66.2142 281.68 67.4391C279.194 68.0818 277.061 69.7295 275.813 71.9706C274.686 73.2669 274.505 74.6843 274.384 75.6291Z" fill="#F56400"/>
</svg>
