<svg width="707" height="708" viewBox="0 0 707 708" fill="none" xmlns="http://www.w3.org/2000/svg">
<path d="M353.838 482.158C344.315 482.158 335.207 480.915 325.684 479.257C292.149 471.799 263.581 451.91 245.364 422.905C227.147 393.9 220.937 359.509 228.389 325.946C235.842 292.383 255.715 263.793 284.696 245.561C344.315 207.441 423.807 225.258 461.897 284.925C480.114 313.93 486.325 348.321 478.872 381.884C471.42 415.447 451.547 444.037 422.565 462.269C401.864 475.114 378.265 482.158 353.838 482.158ZM353.424 228.158C330.239 228.158 307.053 234.374 285.938 247.633C257.785 265.865 237.912 293.626 230.873 326.36C223.421 359.094 229.631 392.657 247.434 421.248C265.651 449.424 293.391 469.313 326.098 476.357C335.207 478.428 344.315 479.257 353.424 479.257C377.023 479.257 400.622 472.628 420.495 459.368C448.649 441.137 468.522 413.375 475.56 380.641C483.013 347.907 476.802 314.344 458.999 285.754C435.814 248.462 394.826 228.158 353.424 228.158Z" fill="#FF6700"/>
<path d="M331.895 286.168C332.723 286.168 333.551 285.339 333.551 284.51V248.047C333.551 247.219 332.723 246.39 331.895 246.39C331.067 246.39 330.239 247.219 330.239 248.047V284.51C330.239 285.339 331.067 286.168 331.895 286.168Z" fill="#FF6700"/>
<path d="M338.933 306.471C339.761 306.471 340.589 305.643 340.589 304.814V246.804C340.589 245.976 339.761 245.147 338.933 245.147C338.105 245.147 337.277 245.976 337.277 246.804V305.228C337.277 306.057 338.105 306.471 338.933 306.471Z" fill="#FF6700"/>
<path d="M346.385 306.057C347.213 306.057 348.041 305.228 348.041 304.4V245.976C348.041 245.147 347.213 244.318 346.385 244.318C345.557 244.318 344.729 245.147 344.729 245.976V304.4C344.729 305.228 345.557 306.057 346.385 306.057Z" fill="#FF6700"/>
<path d="M353.424 305.643C354.252 305.643 355.08 304.814 355.08 303.985V245.561C355.08 244.733 354.252 243.904 353.424 243.904C352.596 243.904 351.768 244.733 351.768 245.561V303.985C352.182 304.814 352.596 305.643 353.424 305.643Z" fill="#FF6700"/>
<path d="M360.876 306.057C361.704 306.057 362.532 305.228 362.532 304.4V245.976C362.532 245.147 361.704 244.318 360.876 244.318C360.048 244.318 359.22 245.147 359.22 245.976V304.4C359.22 305.228 360.048 306.057 360.876 306.057Z" fill="#FF6700"/>
<path d="M368.328 306.471C369.157 306.471 369.985 305.643 369.985 304.814V246.804C369.985 245.976 369.157 245.147 368.328 245.147C367.5 245.147 366.672 245.976 366.672 246.804V305.228C366.672 306.057 367.086 306.471 368.328 306.471Z" fill="#FF6700"/>
<path d="M375.367 278.295C376.195 278.295 377.023 277.467 377.023 276.638V247.633C377.023 246.804 376.195 245.976 375.367 245.976C374.539 245.976 373.711 246.804 373.711 247.633V276.638C373.711 277.467 374.539 278.295 375.367 278.295Z" fill="#FF6700"/>
<path d="M289.25 317.245C289.664 318.073 290.906 318.073 291.734 317.245C292.562 316.83 292.562 315.587 291.734 314.758L267.721 288.24C267.307 287.411 266.065 287.411 265.237 288.24C264.409 288.654 264.409 289.897 265.237 290.726L289.25 317.245Z" fill="#FF6700"/>
<path d="M309.123 328.432C309.537 329.261 310.78 329.261 311.608 328.432C312.436 328.018 312.436 326.775 311.608 325.946L272.69 282.439C272.276 281.61 271.034 281.61 270.205 282.439C269.377 282.853 269.377 284.096 270.205 284.925L309.123 328.432Z" fill="#FF6700"/>
<path d="M314.092 323.046C314.506 323.874 315.748 323.874 316.576 323.046C317.404 322.631 317.404 321.388 316.576 320.559L277.244 277.467C276.83 276.638 275.588 276.638 274.76 277.467C273.932 277.881 273.932 279.124 274.76 279.953L314.092 323.046Z" fill="#FF6700"/>
<path d="M319.06 318.073C319.474 318.902 320.716 318.902 321.544 318.073C322.372 317.659 322.372 316.416 321.544 315.587L282.626 272.08C282.212 271.251 280.97 271.251 280.142 272.08C279.314 272.494 279.314 273.737 280.142 274.566L319.06 318.073Z" fill="#FF6700"/>
<path d="M324.856 313.101C325.27 313.93 326.512 313.93 327.34 313.101C328.168 312.272 328.168 311.444 327.34 310.615L288.422 267.108C288.008 266.279 286.766 266.279 285.938 267.108C285.11 267.522 285.11 268.765 285.938 269.594L324.856 313.101Z" fill="#FF6700"/>
<path d="M330.653 308.957C331.067 309.786 332.309 309.786 333.137 308.957C333.965 308.543 333.965 307.3 333.137 306.471L294.219 262.964C293.805 262.135 292.563 262.135 291.735 262.964C290.907 263.378 290.907 264.621 291.735 265.45L330.653 308.957Z" fill="#FF6700"/>
<path d="M330.653 298.184C331.067 299.013 332.309 299.013 333.137 298.184C333.965 297.77 333.965 296.527 333.137 295.698L300.015 258.821C299.601 257.992 298.359 257.992 297.531 258.821C296.703 259.235 296.703 260.478 297.531 261.307L330.653 298.184Z" fill="#FF6700"/>
<path d="M282.212 366.553C282.212 365.724 281.798 364.895 280.97 364.895L246.192 361.166C245.364 361.166 244.536 361.581 244.536 362.409C244.536 363.238 244.95 364.067 245.778 364.067L280.556 367.796C281.384 368.21 282.212 367.796 282.212 366.553Z" fill="#FF6700"/>
<path d="M245.364 357.022L303.327 364.067C304.155 364.067 304.983 363.652 304.983 362.823C304.983 361.995 304.569 361.166 303.741 361.166L245.778 354.122C244.95 354.122 244.122 354.536 244.122 355.365C243.708 356.194 244.536 357.022 245.364 357.022Z" fill="#FF6700"/>
<path d="M245.364 349.564L303.327 356.608C304.155 356.608 304.983 356.194 304.983 355.365C304.983 354.536 304.569 353.708 303.741 353.708L245.778 346.664C244.95 346.664 244.122 347.078 244.122 347.907C244.122 348.735 244.536 349.564 245.364 349.564Z" fill="#FF6700"/>
<path d="M246.192 342.52L304.155 349.564C304.983 349.564 305.811 349.15 305.811 348.321C305.811 347.492 305.397 346.664 304.569 346.664L246.606 339.62C245.778 339.62 244.95 340.034 244.95 340.863C244.536 341.691 245.364 342.106 246.192 342.52Z" fill="#FF6700"/>
<path d="M247.434 335.062L305.397 342.106C306.225 342.106 307.053 341.692 307.053 340.863C307.053 340.034 306.639 339.205 305.811 339.205L247.848 332.161C247.02 332.161 246.192 332.576 246.192 333.404C245.778 334.233 246.192 335.062 247.434 335.062Z" fill="#FF6700"/>
<path d="M248.676 328.018L306.639 335.062C307.467 335.062 308.295 334.647 308.295 333.819C308.295 332.99 307.881 332.161 307.053 332.161L249.09 325.117C248.262 325.117 247.434 325.532 247.434 326.36C247.434 327.189 247.848 328.018 248.676 328.018Z" fill="#FF6700"/>
<path d="M250.746 320.974L298.359 326.775C299.187 326.775 300.015 326.36 300.015 325.532C300.015 324.703 299.601 323.874 298.773 323.874L251.16 317.659C250.332 317.659 249.504 318.073 249.504 318.902C249.504 320.145 249.918 320.974 250.746 320.974Z" fill="#FF6700"/>
<path d="M327.341 397.215C326.926 396.386 325.684 396.386 325.27 396.801L276.416 428.706C275.588 429.12 275.588 430.363 276.002 430.778C276.416 431.606 277.658 431.606 278.072 431.192L326.926 399.287C327.34 398.872 327.755 397.629 327.341 397.215Z" fill="#FF6700"/>
<path d="M321.958 391.828C321.544 391 320.302 391 319.888 391.414L271.033 423.319C270.205 423.734 270.205 424.977 270.619 425.391C271.033 426.22 272.276 426.22 272.69 425.806L321.544 393.9C322.372 393.486 322.786 392.243 321.958 391.828Z" fill="#FF6700"/>
<path d="M317.404 386.027C316.99 385.199 315.748 385.199 315.334 385.613L266.479 417.518C265.651 417.933 265.651 419.176 266.065 419.59C266.479 420.419 267.721 420.419 268.135 420.004L316.99 388.099C317.818 387.685 318.232 386.856 317.404 386.027Z" fill="#FF6700"/>
<path d="M313.264 380.226C312.85 379.398 311.608 379.398 311.194 379.812L262.339 411.717C261.511 412.132 261.511 413.375 261.925 413.789C262.339 414.618 263.581 414.618 263.995 414.203L312.85 382.298C313.678 381.884 314.092 380.641 313.264 380.226Z" fill="#FF6700"/>
<path d="M309.537 374.011C309.123 373.182 307.881 373.182 307.467 373.597L258.613 405.502C257.785 405.916 257.785 407.159 258.199 407.574C258.613 408.403 259.855 408.403 260.269 407.988L309.123 376.083C309.951 375.669 309.951 374.425 309.537 374.011Z" fill="#FF6700"/>
<path d="M306.225 367.381C305.811 366.553 304.569 366.553 304.155 366.967L255.301 398.872C254.473 399.287 254.473 400.53 254.887 400.944C255.301 401.773 256.543 401.773 256.957 401.358L305.811 369.453C306.639 369.039 306.639 368.21 306.225 367.381Z" fill="#FF6700"/>
<path d="M292.149 367.796C291.735 366.967 290.492 366.967 290.078 367.381L252.402 392.243C251.574 392.657 251.574 393.9 251.989 394.314C252.403 395.143 253.645 395.143 254.059 394.729L291.734 369.868C292.563 369.453 292.563 368.624 292.149 367.796Z" fill="#FF6700"/>
<path d="M357.15 426.22C356.322 425.805 355.494 426.634 355.08 427.463L345.971 461.025C345.557 461.854 346.385 462.683 347.213 463.097C348.042 463.512 348.87 462.683 349.284 461.854L358.392 428.291C358.392 427.463 357.978 426.634 357.15 426.22Z" fill="#FF6700"/>
<path d="M351.768 417.518C350.94 417.104 350.112 417.933 349.698 418.761L338.519 460.611C338.105 461.44 338.933 462.268 339.761 462.683C340.589 463.097 341.417 462.268 341.831 461.44L353.01 419.59C353.01 418.761 352.596 417.933 351.768 417.518Z" fill="#FF6700"/>
<path d="M348.456 401.773C347.628 401.358 346.799 402.187 346.385 403.016L331.48 459.368C331.066 460.197 331.895 461.025 332.723 461.44C333.551 461.854 334.379 461.025 334.793 460.197L349.698 403.845C349.698 403.016 349.284 402.187 348.456 401.773Z" fill="#FF6700"/>
<path d="M341.417 400.115C340.589 399.701 339.761 400.53 339.347 401.358L324.442 457.711C324.028 458.539 324.856 459.368 325.684 459.782C326.512 460.197 327.34 459.368 327.754 458.539L342.659 402.187C342.659 401.358 342.245 400.53 341.417 400.115Z" fill="#FF6700"/>
<path d="M334.379 398.044C333.551 397.629 332.723 398.458 332.309 399.287L317.404 455.639C316.99 456.468 317.818 457.296 318.646 457.711C319.474 458.125 320.302 457.296 320.716 456.468L335.621 400.115C335.621 399.287 335.207 398.458 334.379 398.044Z" fill="#FF6700"/>
<path d="M324.442 407.574C323.614 407.159 322.786 407.988 322.372 408.817L310.779 453.153C310.365 453.981 311.194 454.81 312.022 455.225C312.85 455.639 313.678 454.81 314.092 453.981L325.684 409.646C325.684 408.817 325.27 407.574 324.442 407.574Z" fill="#FF6700"/>
<path d="M315.748 411.717C314.92 411.303 314.092 412.132 313.678 412.96L303.741 450.252C303.327 451.081 304.155 451.91 304.983 452.324C305.811 452.738 306.639 451.91 307.053 451.081L316.99 413.789C316.99 412.96 316.576 412.132 315.748 411.717Z" fill="#FF6700"/>
<path d="M404.763 407.574C404.349 406.745 403.52 406.331 402.692 406.745C401.864 407.16 401.45 407.988 401.864 408.817L416.769 440.722C417.183 441.551 418.011 441.965 418.839 441.551C419.667 441.137 420.081 440.308 419.667 439.479L404.763 407.574Z" fill="#FF6700"/>
<path d="M389.03 391C388.616 390.171 387.787 389.757 386.959 390.171C386.131 390.585 385.717 391.414 386.132 392.243L410.973 444.866C411.387 445.694 412.215 446.109 413.043 445.694C413.871 445.28 414.285 444.451 413.871 443.623L389.03 391Z" fill="#FF6700"/>
<path d="M382.819 394.729C382.405 393.9 381.577 393.486 380.749 393.9C379.921 394.315 379.507 395.143 379.921 395.972L404.762 448.595C405.176 449.424 406.004 449.838 406.833 449.424C407.661 449.009 408.075 448.181 407.66 447.352L382.819 394.729Z" fill="#FF6700"/>
<path d="M376.195 398.044C375.781 397.215 374.953 396.801 374.125 397.215C373.297 397.629 372.883 398.458 373.297 399.287L398.138 451.91C398.552 452.738 399.38 453.153 400.208 452.738C401.036 452.324 401.45 451.495 401.036 450.667L376.195 398.044Z" fill="#FF6700"/>
<path d="M369.571 400.944C369.157 400.115 368.329 399.701 367.501 400.115C366.673 400.53 366.259 401.358 366.673 402.187L391.514 454.81C391.928 455.639 392.756 456.053 393.584 455.639C394.412 455.224 394.826 454.396 394.412 453.567L369.571 400.944Z" fill="#FF6700"/>
<path d="M362.532 403.43C362.118 402.602 361.29 402.187 360.462 402.602C359.634 403.016 359.22 403.845 359.634 404.673L384.475 457.296C384.889 458.125 385.717 458.539 386.545 458.125C387.373 457.711 387.787 456.882 387.373 456.053L362.532 403.43Z" fill="#FF6700"/>
<path d="M355.494 405.502C355.08 404.673 354.252 404.259 353.424 404.673C352.596 405.088 352.182 405.916 352.596 406.745L377.437 459.368C377.851 460.197 378.679 460.611 379.507 460.197C380.335 459.783 380.749 458.954 380.335 458.125L355.494 405.502Z" fill="#FF6700"/>
<path d="M459.413 376.497L427.948 362.409C427.12 361.995 426.292 362.409 425.878 363.238C425.464 364.067 425.878 364.895 426.706 365.31L458.171 379.398C458.999 379.812 459.827 379.398 460.241 378.569C460.655 377.74 460.241 376.912 459.413 376.497Z" fill="#FF6700"/>
<path d="M457.757 383.541L404.762 359.094C403.934 358.68 403.106 359.094 402.692 359.923C402.278 360.752 402.692 361.58 403.52 361.995L456.515 386.442C457.343 386.856 458.171 386.442 458.585 385.613C458.999 384.784 458.585 383.956 457.757 383.541Z" fill="#FF6700"/>
<path d="M455.273 390.585L402.278 366.138C401.45 365.724 400.622 366.138 400.208 366.967C399.794 367.796 400.208 368.625 401.036 369.039L454.031 393.486C454.859 393.9 455.687 393.486 456.101 392.657C456.515 391.828 456.101 391 455.273 390.585Z" fill="#FF6700"/>
<path d="M452.375 397.215L399.38 372.768C398.552 372.354 397.724 372.768 397.31 373.597C396.896 374.425 397.31 375.254 398.138 375.669L451.133 400.115C451.961 400.53 452.789 400.115 453.203 399.287C453.617 398.458 453.203 397.629 452.375 397.215Z" fill="#FF6700"/>
<path d="M449.477 403.845L396.068 379.398C395.24 378.983 394.412 379.398 393.998 380.226C393.584 381.055 393.998 381.884 394.826 382.298L447.821 406.745C448.649 407.159 449.477 406.745 449.891 405.916C450.305 405.088 450.305 404.259 449.477 403.845Z" fill="#FF6700"/>
<path d="M445.751 410.06L392.756 385.613C391.928 385.199 391.1 385.613 390.686 386.442C390.272 387.27 390.686 388.099 391.514 388.514L444.509 412.96C445.337 413.375 446.165 412.96 446.579 412.132C446.993 411.303 446.579 410.474 445.751 410.06Z" fill="#FF6700"/>
<path d="M441.61 416.275L400.208 397.215C399.38 396.801 398.552 397.215 398.138 398.044C397.724 398.872 398.138 399.701 398.966 400.115L440.368 419.176C441.196 419.59 442.024 419.176 442.439 418.347C442.853 417.518 442.438 416.69 441.61 416.275Z" fill="#FF6700"/>
<path d="M407.661 316.83C408.075 317.659 408.903 318.073 409.731 318.073L451.133 307.714C451.961 307.3 452.375 306.471 452.375 305.643C451.961 304.814 451.133 304.4 450.305 304.4L408.903 314.758C408.075 314.758 407.247 315.587 407.661 316.83Z" fill="#FF6700"/>
<path d="M400.622 326.36C401.036 327.189 401.864 327.603 402.692 327.603L454.031 313.93C454.859 313.515 455.273 312.687 455.273 311.858C454.859 311.029 454.031 310.615 453.203 310.615L401.864 324.288C401.036 324.703 400.208 325.532 400.622 326.36Z" fill="#FF6700"/>
<path d="M398.138 334.647C398.552 335.476 399.38 335.89 400.208 335.89L456.515 320.974C457.343 320.559 457.757 319.731 457.757 318.902C457.343 318.073 456.515 317.659 455.687 317.659L399.38 332.576C398.552 332.576 397.724 333.819 398.138 334.647Z" fill="#FF6700"/>
<path d="M400.208 341.277C400.622 342.106 401.45 342.52 402.278 342.52L458.585 327.603C459.413 327.189 459.827 326.36 459.827 325.532C459.413 324.703 458.585 324.289 457.757 324.289L401.45 339.62C400.622 339.62 399.794 340.448 400.208 341.277Z" fill="#FF6700"/>
<path d="M459.413 331.747L403.106 346.664C402.278 347.078 401.864 347.907 401.864 348.735C402.278 349.564 403.106 349.978 403.934 349.978L460.241 335.062C461.069 334.647 461.483 333.819 461.483 332.99C461.069 332.161 460.241 331.747 459.413 331.747Z" fill="#FF6700"/>
<path d="M460.655 338.791L404.348 353.708C403.52 354.122 403.106 354.951 403.106 355.78C403.52 356.608 404.348 357.023 405.176 357.023L461.483 342.106C462.311 341.691 462.726 340.863 462.726 340.034C462.312 339.205 461.484 338.791 460.655 338.791Z" fill="#FF6700"/>
<path d="M463.14 347.492C462.726 346.664 461.898 346.249 461.07 346.249L417.183 357.851C416.355 358.266 415.941 359.094 415.941 359.923C416.355 360.752 417.183 361.166 418.011 361.166L461.897 349.564C462.726 349.15 463.554 348.321 463.14 347.492Z" fill="#FF6700"/>
<path d="M376.609 287.825C377.437 288.24 378.265 288.24 379.093 287.411L402.278 257.163C402.692 256.334 402.692 255.506 401.864 254.677C401.036 254.263 400.208 254.263 399.38 255.091L376.195 285.339C375.781 286.168 375.781 287.411 376.609 287.825Z" fill="#FF6700"/>
<path d="M376.195 300.256C377.023 300.67 377.851 300.67 378.679 299.842L408.489 260.892C408.903 260.064 408.903 259.235 408.075 258.406C407.247 257.992 406.419 257.992 405.591 258.821L375.781 297.77C375.367 298.599 375.367 299.427 376.195 300.256Z" fill="#FF6700"/>
<path d="M377.023 311.444C377.851 311.858 378.679 311.858 379.507 311.029L415.113 264.621C415.527 263.793 415.527 262.964 414.699 262.135C413.871 261.721 413.043 261.721 412.215 262.55L376.609 308.957C376.195 309.786 376.195 310.615 377.023 311.444Z" fill="#FF6700"/>
<path d="M382.819 315.587C383.647 316.001 384.475 316.001 385.303 315.173L420.909 268.765C421.323 267.936 421.323 267.108 420.495 266.279C419.667 265.865 418.839 265.865 418.011 266.693L382.405 313.101C381.991 313.93 381.991 315.173 382.819 315.587Z" fill="#FF6700"/>
<path d="M388.616 320.145C389.444 320.559 390.272 320.559 391.1 319.731L426.706 273.323C427.12 272.494 427.12 271.665 426.292 270.837C425.464 270.422 424.636 270.422 423.808 271.251L388.202 317.659C387.374 318.487 387.788 319.731 388.616 320.145Z" fill="#FF6700"/>
<path d="M393.584 325.117C394.412 325.532 395.24 325.532 396.068 324.703L431.674 278.295C432.088 277.466 432.088 276.638 431.26 275.809C430.432 275.395 429.604 275.395 428.776 276.223L393.17 322.631C392.756 323.46 393.17 324.703 393.584 325.117Z" fill="#FF6700"/>
<path d="M415.941 308.129C416.769 308.543 417.597 308.543 418.425 307.715L437.056 283.682C437.47 282.853 437.47 282.025 436.642 281.196C435.814 280.367 434.986 280.781 434.158 281.61L415.527 305.643C414.699 306.471 415.113 307.714 415.941 308.129Z" fill="#FF6700"/>
<path d="M353.424 381.055C348.87 381.055 344.315 379.812 340.589 377.74C333.965 374.425 329.411 368.624 327.34 361.58C325.27 354.536 326.098 347.078 329.411 340.863C332.723 334.233 338.519 329.675 345.557 327.603C352.596 325.532 360.048 326.36 366.258 329.675C372.883 332.99 377.437 338.791 379.507 345.835C383.647 360.337 375.367 375.668 360.876 379.812C358.806 380.641 356.322 381.055 353.424 381.055ZM353.838 328.846C351.354 328.846 349.284 329.261 346.8 329.675C340.589 331.747 335.207 335.89 332.309 341.691C328.997 347.492 328.583 354.122 330.239 360.337C332.309 366.553 336.449 371.939 342.245 374.84C348.042 378.155 354.666 378.569 360.876 376.911C374.125 373.182 381.577 359.094 377.437 346.249C375.367 340.034 371.227 334.647 365.431 331.747C361.704 330.089 357.564 328.846 353.838 328.846Z" fill="#FF6700"/>
<path d="M426.292 305.228C426.706 306.057 427.534 306.057 428.362 305.643L444.509 295.284C445.337 294.869 445.337 294.041 444.922 293.212C444.508 292.383 443.68 292.383 442.852 292.798L426.706 303.156C426.292 303.571 425.878 304.4 426.292 305.228Z" fill="#FF6700"/>
<path d="M461.483 361.995L442.439 359.923C441.61 359.923 441.196 360.337 440.782 361.166C440.782 361.995 441.196 362.409 442.024 362.824L461.07 364.895C461.898 364.895 462.312 364.481 462.726 363.652C462.726 362.824 462.311 361.995 461.483 361.995Z" fill="#FF6700"/>
<path d="M418.011 415.032C417.597 414.618 416.769 414.618 415.941 415.032C415.527 415.447 415.527 416.275 415.941 417.104L429.604 430.778C430.018 431.192 430.846 431.192 431.674 430.778C432.502 430.363 432.088 429.535 431.674 428.706L418.011 415.032Z" fill="#FF6700"/>
<path d="M360.462 441.137C359.634 441.137 359.22 441.965 359.22 442.38L360.462 461.44C360.462 462.269 361.29 462.683 361.704 462.683C362.532 462.683 362.946 461.854 362.946 461.44L361.704 442.38C361.704 441.551 361.29 441.137 360.462 441.137Z" fill="#FF6700"/>
<path d="M301.257 425.391L290.078 441.136C289.664 441.551 289.664 442.379 290.493 443.208C290.907 443.622 291.735 443.623 292.563 442.794L303.741 427.048C304.155 426.634 304.155 425.805 303.327 424.977C302.499 424.977 301.671 424.977 301.257 425.391Z" fill="#FF6700"/>
<path d="M268.549 373.597C268.549 372.768 267.721 372.354 266.893 372.768L248.262 376.912C247.434 376.912 247.02 377.74 247.434 378.569C247.848 379.398 248.262 379.812 249.09 379.398L267.721 375.254C268.135 375.254 268.549 374.425 268.549 373.597Z" fill="#FF6700"/>
<path d="M256.957 304.814L273.932 313.93C274.76 314.344 275.588 313.93 275.588 313.515C276.002 312.687 275.588 311.858 275.174 311.858L258.199 302.742C257.371 302.328 256.543 302.742 256.543 303.157C256.129 303.571 256.543 304.4 256.957 304.814Z" fill="#FF6700"/>
<path d="M320.716 271.251C321.13 272.08 321.544 272.494 322.372 272.08C323.2 271.666 323.614 271.251 323.2 270.423L316.576 252.191C316.162 251.362 315.748 250.948 314.92 251.362C314.092 251.777 313.678 252.191 314.092 253.02L320.716 271.251Z" fill="#FF6700"/>
<path d="M381.577 270.837C382.405 271.251 383.233 270.837 383.233 270.008L389.444 251.777C389.858 250.948 389.444 250.119 388.616 250.119C387.788 250.119 386.96 250.119 386.96 250.948L380.749 269.179C380.749 269.594 380.749 270.423 381.577 270.837Z" fill="#FF6700"/>
<path d="M353.838 482.158C344.315 482.158 335.207 480.915 325.684 479.257C316.99 477.185 308.295 474.285 300.015 470.556C296.703 468.898 293.805 467.655 290.907 465.998C272.69 455.639 256.957 440.722 245.364 422.905C240.396 415.032 236.256 407.16 233.358 398.458C232.116 395.143 230.873 391.828 230.045 388.514C224.249 368.21 223.835 346.664 228.389 325.946C230.459 317.245 233.358 308.543 237.084 300.256C238.74 296.941 239.982 294.041 241.638 291.14C251.989 272.909 266.893 257.163 284.696 245.561C292.563 240.589 300.429 236.446 309.124 233.545C312.436 232.302 315.748 231.059 319.06 230.23C348.456 221.943 379.507 224.429 407.247 237.274C410.559 238.517 413.457 240.175 416.355 241.832C434.986 252.191 450.719 267.108 461.897 284.925C466.866 292.798 471.006 300.67 473.904 309.372C475.146 312.687 475.974 316.002 477.216 319.316C483.013 339.62 483.427 361.166 478.872 381.884C476.802 390.585 473.904 399.287 470.178 407.574C468.936 410.889 467.28 413.789 465.624 416.69C455.273 434.921 440.368 450.667 422.565 462.269C415.113 467.241 406.833 471.384 398.138 474.285C394.826 475.528 391.514 476.771 388.202 477.6C377.437 480.5 365.43 482.158 353.838 482.158ZM353.424 228.158C341.831 228.158 330.653 229.816 319.474 232.716C316.162 233.545 312.85 234.788 309.952 236.031C301.671 238.932 293.805 243.075 286.352 248.047C268.963 259.235 254.059 274.566 244.122 292.798C242.466 295.698 240.81 298.599 239.568 301.914C235.842 309.786 232.944 318.488 231.287 327.189C226.733 347.492 227.561 368.625 232.944 388.514C233.772 391.828 235.014 395.143 236.256 398.044C239.154 406.331 243.294 414.204 248.262 421.662C259.441 439.065 274.76 453.982 292.977 463.926C295.875 465.584 298.773 467.241 302.085 468.484C309.951 472.213 318.646 475.114 327.34 476.771C347.628 481.329 368.743 480.915 388.616 475.114C391.928 474.285 395.24 473.042 398.138 471.799C406.419 468.898 414.285 464.755 421.737 459.783C439.126 448.595 454.031 433.264 463.968 415.032C465.624 412.132 467.28 409.231 468.522 405.916C472.248 398.044 475.146 389.342 476.802 380.641C481.357 360.337 480.529 339.205 475.146 319.316C474.318 316.002 473.076 313.101 471.834 309.786C468.936 301.499 464.796 293.626 459.827 286.168C448.649 268.765 433.33 254.263 415.113 243.904C412.215 242.246 409.317 240.589 406.005 239.346C389.444 231.888 371.227 228.158 353.424 228.158Z" fill="#FF6700"/>
<path d="M406.419 239.76H406.005C378.679 227.33 348.042 224.844 319.474 233.131C319.06 233.131 318.232 233.131 318.232 232.716L278.072 178.022C278.072 178.022 278.072 177.607 277.658 177.607L256.543 53.7152C256.543 53.3009 256.543 52.8865 256.957 52.8865C257.785 52.0578 273.518 29.6827 316.162 12.6941C358.806 -4.29438 398.966 0.677874 398.966 0.677874C399.794 0.677874 400.208 1.50658 400.208 1.92094L407.661 238.103C407.661 238.517 407.247 238.932 407.247 239.346C407.247 239.346 406.833 239.76 406.419 239.76ZM353.424 225.258C371.227 225.258 388.616 228.987 405.177 236.031L397.724 3.164C391.1 2.33529 355.08 -0.150835 316.99 15.1803C278.072 30.5114 261.511 50.8148 259.441 54.1296L280.142 176.778L319.474 230.23C330.653 226.915 342.245 225.258 353.424 225.258Z" fill="#FF6700"/>
<path d="M323.614 707.566C314.092 707.566 308.296 706.738 307.882 706.738C307.053 706.738 306.639 705.909 306.639 705.495L299.187 469.313C299.187 468.898 299.601 468.484 299.601 468.07C300.015 467.655 300.429 467.655 300.843 468.07C308.709 471.799 317.404 474.699 326.098 476.357C346.385 480.915 367.501 480.5 387.374 474.699C387.788 474.699 388.616 474.699 388.616 475.114L428.776 529.808C428.776 529.808 428.776 530.223 429.19 530.223L450.305 653.7C450.305 654.115 450.305 654.529 449.891 654.943C449.891 654.943 431.674 673.589 390.686 693.478C366.258 705.495 339.761 707.566 323.614 707.566ZM309.538 704.252C316.576 705.08 354.666 707.981 389.858 690.992C427.12 673.175 444.923 656.186 447.821 653.286L427.12 531.052L387.788 477.6C367.915 482.986 346.385 483.815 326.098 479.257C317.818 477.6 309.952 474.699 302.499 471.384L309.538 704.252Z" fill="#FF6700"/>
<path d="M53.6721 450.667C53.2581 450.667 53.2581 450.667 52.8441 450.252C52.016 449.424 29.6588 433.678 12.6839 391C-4.29095 348.321 0.677337 308.129 0.677337 308.129C0.677337 307.3 1.50539 306.886 1.91941 306.886L237.912 299.427C238.326 299.427 238.74 299.842 239.154 299.842C239.568 300.256 239.568 300.67 239.154 301.085C235.428 308.957 232.529 317.659 230.873 326.36C226.319 346.664 227.147 367.796 232.529 387.685C232.529 388.099 232.529 388.928 232.115 388.928L177.465 429.12L177.051 429.535L53.6721 450.667ZM3.16149 309.786C2.33345 316.416 -0.150705 352.465 15.1681 390.585C30.4869 429.535 50.7739 446.109 54.0861 448.18L176.636 427.463L230.045 388.099C224.663 368.21 223.835 346.664 228.389 326.36C230.045 318.073 232.943 310.201 236.256 302.742L3.16149 309.786Z" fill="#FF6700"/>
<path d="M468.936 407.988C468.522 407.988 468.108 407.574 467.694 407.574C467.28 407.159 467.28 406.745 467.694 406.331C471.42 398.458 474.318 389.757 475.974 381.055C480.528 360.752 479.7 339.62 474.318 319.731C474.318 319.316 474.318 318.488 474.732 318.488L529.383 278.295L529.797 277.881L653.175 256.749C653.589 256.749 654.003 256.749 654.417 257.163C654.417 257.163 673.048 275.395 692.922 316.416C711.966 355.365 706.17 398.872 706.17 399.287C706.17 400.115 705.342 400.53 704.928 400.53L468.936 407.988ZM477.216 319.731C482.599 339.62 483.427 361.166 478.872 381.469C477.216 389.757 474.318 397.629 471.006 405.088L703.686 397.629C704.514 390.585 707.412 352.465 690.437 317.245C672.634 279.953 655.66 262.135 652.761 259.235L530.625 279.953L477.216 319.731Z" fill="#FF6700"/>
<path d="M242.88 293.212L175.808 282.853C175.394 282.853 175.394 282.853 175.394 282.439L73.1311 210.341C72.7171 210.341 72.717 209.927 72.717 209.512C72.303 208.269 67.7488 181.336 85.9658 139.072C104.183 96.8081 136.062 72.3612 136.062 71.9468C136.476 71.5324 137.304 71.5324 137.718 71.9468L309.952 233.545C310.366 233.959 310.365 234.374 310.365 234.788C310.365 235.202 309.951 235.617 309.537 235.617C301.257 238.517 293.391 242.661 285.938 247.633C268.549 258.821 253.645 274.152 243.708 292.383C243.708 292.798 243.294 293.212 242.88 293.212ZM176.222 280.367L242.052 290.312C252.402 272.08 266.893 256.749 284.696 245.561C291.735 241.003 299.187 237.274 307.053 234.374L137.304 74.8473C131.922 78.9908 105.011 102.609 88.8639 140.315C72.3031 178.85 74.7872 204.54 75.6152 208.684L176.222 280.367Z" fill="#FF6700"/>
<path d="M569.957 635.883C569.543 635.883 569.129 635.883 569.129 635.469L396.896 473.871C396.482 473.456 396.482 473.042 396.482 472.627C396.482 472.213 396.896 471.799 397.31 471.799C405.59 468.898 413.457 464.755 420.909 459.783C438.298 448.595 453.203 433.264 463.14 415.032C463.554 414.618 463.968 414.204 464.382 414.204L531.453 424.562C531.867 424.562 531.867 424.562 531.867 424.977L633.716 497.489C634.13 497.903 634.13 498.317 634.13 498.732C634.13 499.146 634.544 524.836 619.64 567.929C605.563 608.95 570.785 635.883 570.371 635.883C570.785 635.883 570.371 635.883 569.957 635.883ZM400.208 473.456L569.957 632.983C575.339 628.425 604.321 603.563 617.156 566.686C630.818 527.737 631.646 503.29 631.646 499.146L530.625 427.463L464.796 417.518C454.445 435.336 439.954 451.081 422.151 462.269C415.527 466.412 408.075 470.141 400.208 473.456Z" fill="#FF6700"/>
<path d="M199.408 635.883C187.815 635.883 166.7 633.811 138.961 621.795C96.7303 603.563 72.303 571.658 71.889 571.658C71.475 571.244 71.475 570.415 71.889 570.001L233.358 397.629C233.772 397.215 234.186 397.215 234.6 397.215C235.014 397.215 235.428 397.629 235.428 398.044C238.326 406.331 242.466 414.204 247.434 421.662C258.613 439.065 273.932 453.982 292.149 463.926C292.563 464.34 292.977 464.755 292.977 465.169L282.626 532.294C282.626 532.709 282.626 532.709 282.212 532.709L209.758 634.64C209.758 635.054 209.344 635.054 208.93 635.054C208.93 635.054 205.618 635.883 199.408 635.883ZM74.7871 570.415C78.9274 575.802 102.527 602.735 140.203 618.895C178.707 635.469 204.376 632.983 208.516 632.154L280.556 531.051L290.493 465.169C272.69 454.81 256.957 440.308 245.778 422.491C241.224 415.447 237.498 407.988 234.6 400.115L74.7871 570.415Z" fill="#FF6700"/>
<path d="M472.662 311.029C471.834 311.029 471.42 310.615 471.42 310.201C468.522 301.913 464.382 294.041 459.413 286.582C448.235 269.179 432.916 254.677 414.699 244.318C414.285 243.904 413.871 243.489 413.871 243.075L424.221 175.95C424.221 175.535 424.222 175.535 424.636 175.535L497.089 73.6042C497.503 73.1898 497.917 73.1898 498.331 73.1898C498.745 73.1898 524.415 72.7755 567.473 87.6922C608.461 101.78 635.372 136.586 635.372 137C635.787 137.415 635.787 138.243 635.372 138.658L473.904 311.029C473.49 310.615 473.076 311.029 472.662 311.029ZM417.183 242.246C435.4 252.605 450.719 267.108 461.897 284.925C466.452 291.969 470.178 299.427 473.076 307.3L632.474 137.415C627.92 132.028 603.079 103.023 566.231 90.1783C527.313 76.5046 502.886 75.6759 498.745 75.6759L427.12 176.778L417.183 242.246Z" fill="#FF6700"/>
</svg>
