<svg width="146" height="38" viewBox="0 0 146 38" fill="none" xmlns="http://www.w3.org/2000/svg">
<path d="M71.5357 37.125C48.5357 37.125 23.7667 0.125 1.76672 0.125C-20.2333 0.125 171.036 -0.375005 142.536 0.624995C114.036 1.62499 94.5357 37.125 71.5357 37.125Z" fill="#182D44"/>
<path d="M72.0725 30.125C54.8038 30.125 35.2937 0.125 19.2937 0.125L125.294 0.125079C109.294 0.125065 89.3412 30.125 72.0725 30.125Z" fill="url(#paint0_linear)"/>
<path d="M69 14.9622C69 14.7472 69.0842 14.5405 69.2441 14.3751C69.5725 14.0526 70.1113 14.0526 70.4396 14.3751L72.9989 16.8807L75.5583 14.3669C75.8866 14.0444 76.4254 14.0444 76.7537 14.3669C77.0821 14.6894 77.0821 15.2186 76.7537 15.5411L73.5967 18.642C73.4367 18.7991 73.2263 18.8818 72.9989 18.8818C72.7716 18.8818 72.5612 18.7908 72.4012 18.642L69.2441 15.5493C69.0842 15.384 69 15.169 69 14.9622Z" fill="#F58134"/>
<path d="M69 8.96224C69 8.74724 69.0842 8.54052 69.2441 8.37514C69.5725 8.05265 70.1113 8.05265 70.4396 8.37514L72.9989 10.8807L75.5583 8.36687C75.8866 8.04438 76.4254 8.04438 76.7537 8.36687C77.0821 8.68936 77.0821 9.21858 76.7537 9.54107L73.5967 12.642C73.4367 12.7991 73.2263 12.8818 72.9989 12.8818C72.7716 12.8818 72.5612 12.7908 72.4012 12.642L69.2441 9.54934C69.0842 9.38396 69 9.16896 69 8.96224Z" fill="#F58134"/>
<defs>
<linearGradient id="paint0_linear" x1="72.2937" y1="0.125" x2="72.2937" y2="30.125" gradientUnits="userSpaceOnUse">
<stop stop-color="#182D44"/>
<stop offset="1" stop-color="#2B5079"/>
</linearGradient>
</defs>
</svg>
